Coordinates
version=1
nRows=5
nColumns=46
inDegrees=yes

Units are S.I. units (second, meters, Newtons, ...)
Angles are in degrees.

endheader
time	pelvis_tilt	pelvis_list	pelvis_rotation	pelvis_tx	pelvis_ty	pelvis_tz	bb_angle	bb_tx	bb_ty	bb_tz	hip_flexion_r	hip_adduction_r	hip_rotation_r	knee_angle_r	knee_angle_r_beta	ankle_angle_r	subtalar_angle_r	mtp_angle_r	crank_angle_r	hip_flexion_l	hip_adduction_l	hip_rotation_l	knee_angle_l	knee_angle_l_beta	ankle_angle_l	subtalar_angle_l	mtp_angle_l	crank_angle_l	lumbar_extension	lumbar_bending	lumbar_rotation	arm_flex_r	arm_add_r	arm_rot_r	elbow_flex_r	pro_sup_r	wrist_flex_r	wrist_dev_r	arm_flex_l	arm_add_l	arm_rot_l	elbow_flex_l	pro_sup_l	wrist_flex_l	wrist_dev_l
      5.00500000	    -26.60175225	     -3.30480286	     17.85854256	      0.45669220	      1.17367787	     -0.18960613	      0.00000000	      0.50000000	      0.00000000	      0.25000000	     37.32728534	     -5.20351144	     -6.73196456	     55.86995158	      0.97511461	    -34.21473873	    -11.67111515	      0.00000000	      0.00000000	     65.19875710	      3.52720719	     10.72372966	     68.18700223	      1.19008770	     11.86330537	      2.66797886	      0.00000000	      0.00000000	    -55.83004802	      3.30127356	    -24.47795460	     63.28591455	     -2.76284082	     51.61127621	     38.34686504	     57.90999149	      0.00000000	      0.00000000	     41.81880401	    -44.18378582	     18.29208871	     95.81121823	     54.01626048	      0.00000000	      0.00000000
      5.01000000	    -26.06971690	     -3.96616541	     17.85832967	      0.45716609	      1.17360222	     -0.18993455	      0.00000000	      0.50000000	      0.00000000	      0.25000000	     38.02977448	     -4.52701083	     -6.88715274	     58.30884387	      1.01768131	    -33.98814606	    -11.83032997	      0.00000000	      0.00000000	     63.74522999	      2.94772337	     11.35604993	     65.90807784	      1.15031296	     10.67420544	      2.84067289	      0.00000000	      0.00000000	    -56.17343628	      3.96578146	    -24.05486876	     63.54871715	     -2.61545957	     51.63481414	     38.29824836	     57.89864644	      0.00000000	      0.00000000	     41.56657006	    -44.34940634	     18.12433622	     95.85536039	     54.00772392	      0.00000000	      0.00000000
      5.01500000	    -25.70638034	     -4.62438944	     17.63805687	      0.45768663	      1.17290388	     -0.19089129	      0.00000000	      0.50000000	      0.00000000	      0.25000000	     38.91735247	     -3.82975415	     -6.84045606	     60.78475881	      1.06089418	    -33.59897137	    -11.80912182	      0.00000000	      0.00000000	     62.39542520	      2.35472200	     11.96797480	     63.70495207	      1.11186116	      9.61758290	      2.49764321	      0.00000000	      0.00000000	    -56.34836171	      4.80191770	    -24.89039325	     64.77801888	     -0.67268670	     53.99697545	     36.28313593	     57.94424318	      0.00000000	      0.00000000	     37.70867465	    -45.56476379	     13.89743763	     98.05617318	     53.93980653	      0.00000000	      0.00000000
      5.02000000	    -25.21087986	     -5.32124087	     17.42039687	      0.45800580	      1.17216343	     -0.19115371	      0.00000000	      0.50000000	      0.00000000	      0.25000000	     39.70101652	     -3.03000167	     -6.96946326	     63.27098211	      1.10428696	    -32.98332954	    -12.15056379	      0.00000000	      0.00000000	     60.90725559	      1.62592017	     12.73542405	     61.40950570	      1.07179807	      8.50371186	      2.62193444	      0.00000000	      0.00000000	    -56.60216917	      5.40373276	    -24.26883399	     64.99021849	     -0.55308681	     54.03587044	     36.26123487	     57.93978525	      0.00000000	      0.00000000	     37.43483904	    -45.72719430	     13.78782489	     98.01826285	     53.92568005	      0.00000000	      0.00000000
      5.02500000	    -24.83362911	     -5.95962154	     17.01454411	      0.45844669	      1.17109241	     -0.19174428	      0.00000000	      0.50000000	      0.00000000	      0.25000000	     40.59209472	     -2.30792658	     -7.07539623	     65.80600503	      1.14853146	    -32.05583334	    -12.51732791	      0.00000000	      0.00000000	     59.41915113	      0.86713904	     13.41997664	     59.06093837	      1.03080783	      7.24380790	      2.36747630	      0.00000000	      0.00000000	    -56.79791194	      5.89178885	    -23.63225726	     65.20508296	     -0.42690386	     54.15945912	     36.21086601	     57.94713334	      0.00000000	      0.00000000	     36.94874205	    -45.92055653	     13.56246138	     98.03264644	     53.91256226	      0.00000000	      0.00000000
